<svg width="376" height="239" viewBox="0 0 376 239" fill="none" xmlns="http://www.w3.org/2000/svg">
<path d="M2.87653 238.5C2.54653 238.5 2.21653 238.5 1.87653 238.5C0.0309912 229.272 0.60829 223.673 5.12653 215.562C5.57327 214.741 6.02001 213.919 6.48029 213.072C14.0795 199.414 23.5235 187.162 33.8765 175.5C34.7441 174.51 35.6116 173.52 36.5054 172.5C40.7027 167.784 44.9461 163.345 49.7828 159.285C52.2012 157.223 54.4963 155.05 56.814 152.875C64.1052 146.237 71.9472 140.349 79.8765 134.5C80.5652 133.992 81.2539 133.484 81.9634 132.96C140.889 89.785 211.303 58.4067 282.877 44.5C282.103 43.9547 281.33 43.4095 280.533 42.8477C264.456 31.208 264.456 31.208 260.876 22.5C260.741 20.0264 260.741 20.0264 260.9 17.2969C260.977 15.8273 260.977 15.8273 261.056 14.3281C261.121 13.3123 261.185 12.2966 261.252 11.25C261.337 9.70312 261.337 9.70312 261.423 8.125C261.565 5.58261 261.716 3.04124 261.877 0.5C265.275 2.11982 267.778 4.02282 270.627 6.5C295.765 27.1849 341.324 49 374.877 49C374.877 54 374.877 57.5 374.877 62.5C375.903 61.1866 373.904 63.8534 374.877 62.5C374.877 66.5 375.068 70.3508 374.877 72.5C374.744 73.7787 371.137 72.8561 371 74.1736C370.443 74.0659 369.764 74.2846 369.19 74.1736C352.825 71.2439 342.38 73.8052 327.877 81.5C326.333 82.2684 324.787 83.0329 323.24 83.793C309.898 90.4619 298.265 98.8693 286.877 108.5C286.219 109.034 285.562 109.567 284.884 110.117C280.37 113.829 276.618 118.02 272.877 122.5C272.365 123.108 271.853 123.717 271.326 124.344C270.17 125.724 269.022 127.111 267.877 128.5C267.217 128.17 266.557 127.84 265.877 127.5C265.918 126.572 265.959 125.644 266.002 124.688C266.015 121.333 265.515 118.228 264.877 114.938C263.037 105.179 263.037 105.179 265.252 100.75C273.81 89.3096 285.992 80.2427 297.877 72.5C209.742 80.7427 113.643 118.965 48.4937 180.07C46.3959 182.018 44.2734 183.871 42.064 185.688C38.2391 188.935 35.1054 192.673 31.8765 196.5C30.6216 197.923 30.6216 197.923 29.3414 199.375C18.8222 211.378 10.5692 224.554 2.87653 238.5Z" fill="#FFC107"/>
</svg>
