<svg width="481" height="410" viewBox="0 0 481 410" fill="none" xmlns="http://www.w3.org/2000/svg">
<path d="M2.84089 394.225C2.06712 393.929 1.19997 394.316 0.904058 395.09C0.608151 395.864 0.99555 396.731 1.76935 397.027L2.84089 394.225ZM13.2676 401.009L13.9122 399.655L13.2676 401.009ZM50.3279 407.802L50.1449 406.313L50.3279 407.802ZM81.6527 396.335L80.7086 395.169L81.6527 396.335ZM93.0534 362.867L91.5534 362.858L93.0534 362.867ZM77.9506 285.684L76.5215 286.14L77.9506 285.684ZM34.2522 173.246L35.6561 172.718L34.2522 173.246ZM5.0087 61.383L3.50884 61.4041L5.0087 61.383ZM46.4123 6.26656L46.0136 4.82051L46.4123 6.26656ZM184.086 24.3383L184.596 22.9277L184.086 24.3383ZM310.163 83.3741L309.367 84.6454L310.163 83.3741ZM411.796 170.595L410.686 171.603L411.796 170.595ZM459.52 231.874L460.78 231.06L459.52 231.874ZM478.393 284.738L476.9 284.596L478.393 284.738ZM452.416 321.684L453.2 322.963L452.416 321.684ZM377.145 344.654L377.345 346.14L377.145 344.654ZM279.924 335.053L280.503 333.67L279.924 335.053ZM219.5 291.516L218.346 292.475L219.5 291.516ZM221.661 289.777L204.545 292.428L215.399 305.926L221.661 289.777ZM1.76935 397.027C3.57901 397.719 5.33823 398.594 7.13487 399.535C8.90805 400.463 10.7527 401.474 12.623 402.364L13.9122 399.655C12.1106 398.798 10.3688 397.841 8.52613 396.877C6.70693 395.924 4.82087 394.982 2.84089 394.225L1.76935 397.027ZM12.623 402.364C24.9848 408.247 37.0031 410.951 50.5109 409.29L50.1449 406.313C37.3196 407.889 25.8764 405.348 13.9122 399.655L12.623 402.364ZM50.5109 409.29C61.368 407.956 73.7163 404.694 82.5968 397.5L80.7086 395.169C72.4753 401.838 60.7938 405.004 50.1449 406.313L50.5109 409.29ZM82.5968 397.5C87.4536 393.566 90.409 387.688 92.1649 381.489C93.9248 375.275 94.5208 368.596 94.5534 362.875L91.5534 362.858C91.5218 368.411 90.941 374.801 89.2784 380.672C87.6117 386.556 84.8988 391.775 80.7086 395.169L82.5968 397.5ZM94.5534 362.875C94.7012 336.863 87.2002 309.751 79.3797 285.228L76.5215 286.14C84.3369 310.647 91.6983 337.362 91.5534 362.858L94.5534 362.875ZM79.3797 285.228C67.1581 246.906 49.7365 210.142 35.6561 172.718L32.8483 173.775C47.0695 211.573 64.3111 247.852 76.5215 286.14L79.3797 285.228ZM35.6561 172.718C22.4551 137.632 7.03383 98.7076 6.50855 61.3619L3.50884 61.4041C4.04309 99.3878 19.7117 138.859 32.8483 173.775L35.6561 172.718ZM6.50855 61.3619C6.31319 47.4714 10.0332 35.8385 16.9273 26.81C23.8236 17.7786 33.9741 11.2517 46.8109 7.71261L46.0136 4.82051C32.6482 8.50528 21.8975 15.3579 14.5429 24.9894C7.18605 34.6239 3.30537 46.9373 3.50884 61.4041L6.50855 61.3619ZM46.8109 7.71261C91.0843 -4.49335 140.435 10.151 183.576 25.749L184.596 22.9277C141.514 7.35114 91.3139 -7.66858 46.0136 4.82051L46.8109 7.71261ZM183.576 25.749C226.775 41.3678 270.046 60.0253 309.367 84.6454L310.959 82.1027C271.388 57.3258 227.899 38.5838 184.596 22.9277L183.576 25.749ZM309.367 84.6454C347.081 108.259 380.502 138.357 410.686 171.603L412.907 169.587C382.593 136.197 348.966 105.9 310.959 82.1027L309.367 84.6454ZM410.686 171.603C425.389 187.798 445.992 213.702 458.26 232.688L460.78 231.06C448.404 211.907 427.693 185.873 412.907 169.587L410.686 171.603ZM458.26 232.688C468.162 248.014 478.638 266.346 476.9 284.596L479.886 284.88C481.736 265.457 470.62 246.289 460.78 231.06L458.26 232.688ZM476.9 284.596C475.382 300.54 464.759 312.363 451.633 320.405L453.2 322.963C466.766 314.651 478.245 302.12 479.886 284.88L476.9 284.596ZM451.633 320.405C429.475 333.981 402.736 339.707 376.946 343.167L377.345 346.14C403.231 342.667 430.488 336.878 453.2 322.963L451.633 320.405ZM376.946 343.167C344.577 347.509 311.471 346.639 280.503 333.67L279.344 336.437C310.983 349.687 344.68 350.522 377.345 346.14L376.946 343.167ZM280.503 333.67C258.948 324.642 235.962 308.965 220.653 290.556L218.346 292.475C234.013 311.314 257.421 327.255 279.344 336.437L280.503 333.67Z" fill="#FFC107" fill-opacity="0.39"/>
</svg>
