<svg version="1.1" id="Layer_1" xmlns="http://www.w3.org/2000/svg" xmlns:xlink="http://www.w3.org/1999/xlink" x="0px" y="0px"
	 width="100%" viewBox="0 0 480 576" enable-background="new 0 0 480 576" xml:space="preserve">
<path fill="#000000" opacity="1.000000" stroke="none" 
	d="
M293.000122,57.649673 
	C313.998169,57.652843 334.496429,57.596802 354.994232,57.671864 
	C400.390320,57.838104 441.103271,93.460663 447.416962,138.404922 
	C448.483398,145.996521 448.994659,153.621094 449.254456,161.268875 
	C450.311615,192.384094 451.150146,223.508224 452.445801,254.613403 
	C453.568268,281.561005 454.504639,308.513000 455.489471,335.464722 
	C456.449982,361.750427 458.151123,388.021088 458.259064,414.324280 
	C458.436035,457.451508 421.449036,499.460205 378.752655,505.424225 
	C374.107147,506.073120 369.491058,506.372284 364.826538,506.372314 
	C280.334564,506.372681 195.842575,506.431580 111.350685,506.357330 
	C64.663460,506.316284 24.064379,471.395325 16.874554,425.227539 
	C15.175184,414.315399 15.360471,403.334045 16.321642,392.341492 
	C17.206507,382.221588 16.940577,372.050446 17.471514,361.900024 
	C18.680244,338.791504 18.975910,315.636627 19.793648,292.505951 
	C21.081873,256.066986 22.205545,219.618225 23.991558,183.202682 
	C24.740480,167.932678 24.362156,152.600296 26.599171,137.381516 
	C32.405804,97.878014 67.561584,63.409378 107.090782,58.565311 
	C112.576286,57.893089 118.025154,57.652020 123.517097,57.651875 
	C179.844757,57.650414 236.172424,57.650375 293.000122,57.649673 
M381.162903,96.356079 
	C371.118683,91.714050 360.427643,90.396095 349.528168,90.391441 
	C276.884247,90.360382 204.240326,90.371933 131.596405,90.378372 
	C125.605774,90.378906 119.644997,90.558174 113.651955,91.143883 
	C84.749161,93.968597 59.492947,120.356705 58.353714,149.228424 
	C57.375881,174.009613 56.177612,198.783936 55.431713,223.571960 
	C54.605560,251.026993 53.613400,278.471985 52.417973,305.913666 
	C51.418182,328.864410 51.218922,351.852112 50.058102,374.792725 
	C49.536057,385.109558 49.957729,395.465454 48.861465,405.725342 
	C48.282261,411.146118 48.770042,416.455017 49.806190,421.583282 
	C56.046509,452.468781 82.132889,473.633057 113.626686,473.642761 
	C197.100555,473.668488 280.574402,473.656616 364.048279,473.644104 
	C370.928528,473.643097 377.645447,472.453125 384.097290,470.111145 
	C408.206665,461.359497 426.597900,435.838806 426.617035,410.157898 
	C426.636353,384.188995 425.051147,358.253540 423.936981,332.310181 
	C422.787048,305.534576 421.858734,278.749084 420.921417,251.964874 
	C419.780243,219.355515 418.931458,186.734619 417.577911,154.134430 
	C416.509369,128.398895 405.673126,108.414238 381.162903,96.356079 
z"/>
<path fill="#000000" opacity="1.000000" stroke="none" 
	d="
M186.973328,200.024078 
	C233.285919,235.922928 300.016846,213.585510 314.003296,157.793732 
	C315.663910,151.169556 316.552246,144.420731 316.663422,137.578278 
	C316.825531,127.603836 323.044739,121.613373 333.154694,121.662460 
	C342.968048,121.710106 349.161011,127.725166 349.341583,137.384369 
	C350.394867,193.725174 308.096954,243.035126 252.326950,249.265991 
	C203.022980,254.774414 164.740707,236.214233 139.052597,193.523743 
	C128.740601,176.386475 124.212448,157.308701 124.673073,137.187744 
	C124.892410,127.606476 131.203979,121.627632 141.065720,121.662819 
	C150.901794,121.697914 157.121658,127.681664 157.342697,137.319168 
	C157.919601,162.473206 167.085464,183.592224 186.973328,200.024078 
z"/>
</svg>